<mxfile host="app.diagrams.net" modified="2021-10-03T18:53:30.665Z" agent="5.0 (Windows NT 10.0; Win64; x64) AppleWebKit/537.36 (KHTML, like Gecko) Chrome/94.0.4606.71 Safari/537.36" etag="DxxpZpzBkpXGTIQKTPRa" version="15.4.1" type="github">
  <diagram id="C5RBs43oDa-KdzZeNtuy" name="Page-1">
    <mxGraphModel dx="1061" dy="899" grid="1" gridSize="10" guides="1" tooltips="1" connect="1" arrows="1" fold="1" page="1" pageScale="1" pageWidth="827" pageHeight="1169" math="0" shadow="0">
      <root>
        <mxCell id="WIyWlLk6GJQsqaUBKTNV-0" />
        <mxCell id="WIyWlLk6GJQsqaUBKTNV-1" parent="WIyWlLk6GJQsqaUBKTNV-0" />
        <UserObject label="" id="fawvQyYBlEfIDo747mIC-1">
          <mxCell style="edgeStyle=orthogonalEdgeStyle;rounded=0;orthogonalLoop=1;jettySize=auto;html=1;entryX=0.5;entryY=0;entryDx=0;entryDy=0;" edge="1" parent="WIyWlLk6GJQsqaUBKTNV-1" source="WIyWlLk6GJQsqaUBKTNV-3" target="fawvQyYBlEfIDo747mIC-11">
            <mxGeometry x="-0.6667" y="180" relative="1" as="geometry">
              <mxPoint x="200.0000000000001" y="319.9999999999999" as="targetPoint" />
              <Array as="points" />
              <mxPoint as="offset" />
            </mxGeometry>
          </mxCell>
        </UserObject>
        <mxCell id="WIyWlLk6GJQsqaUBKTNV-3" value="MyMainWindow" style="rounded=1;whiteSpace=wrap;html=1;fontSize=12;glass=0;strokeWidth=1;shadow=0;" parent="WIyWlLk6GJQsqaUBKTNV-1" vertex="1">
          <mxGeometry x="140" y="240" width="120" height="40" as="geometry" />
        </mxCell>
        <mxCell id="fawvQyYBlEfIDo747mIC-15" value="" style="edgeStyle=orthogonalEdgeStyle;rounded=0;orthogonalLoop=1;jettySize=auto;html=1;" edge="1" parent="WIyWlLk6GJQsqaUBKTNV-1" source="fawvQyYBlEfIDo747mIC-6" target="fawvQyYBlEfIDo747mIC-14">
          <mxGeometry relative="1" as="geometry">
            <Array as="points">
              <mxPoint x="320" y="445" />
              <mxPoint x="320" y="508" />
            </Array>
          </mxGeometry>
        </mxCell>
        <mxCell id="fawvQyYBlEfIDo747mIC-17" value="" style="edgeStyle=orthogonalEdgeStyle;rounded=0;orthogonalLoop=1;jettySize=auto;html=1;" edge="1" parent="WIyWlLk6GJQsqaUBKTNV-1" source="fawvQyYBlEfIDo747mIC-6" target="fawvQyYBlEfIDo747mIC-16">
          <mxGeometry relative="1" as="geometry" />
        </mxCell>
        <mxCell id="fawvQyYBlEfIDo747mIC-23" value="" style="edgeStyle=orthogonalEdgeStyle;rounded=0;orthogonalLoop=1;jettySize=auto;html=1;" edge="1" parent="WIyWlLk6GJQsqaUBKTNV-1" source="fawvQyYBlEfIDo747mIC-6" target="fawvQyYBlEfIDo747mIC-22">
          <mxGeometry relative="1" as="geometry" />
        </mxCell>
        <mxCell id="fawvQyYBlEfIDo747mIC-6" value="Receipt.count_sum()" style="rounded=1;whiteSpace=wrap;html=1;" vertex="1" parent="WIyWlLk6GJQsqaUBKTNV-1">
          <mxGeometry x="110" y="430" width="180" height="30" as="geometry" />
        </mxCell>
        <mxCell id="fawvQyYBlEfIDo747mIC-10" value="Material&lt;span&gt;.__percent = value&lt;/span&gt;" style="rounded=1;whiteSpace=wrap;html=1;" vertex="1" parent="WIyWlLk6GJQsqaUBKTNV-1">
          <mxGeometry x="350" y="345" width="156" height="30" as="geometry" />
        </mxCell>
        <mxCell id="fawvQyYBlEfIDo747mIC-12" value="" style="edgeStyle=orthogonalEdgeStyle;rounded=0;orthogonalLoop=1;jettySize=auto;html=1;" edge="1" parent="WIyWlLk6GJQsqaUBKTNV-1" source="fawvQyYBlEfIDo747mIC-11" target="fawvQyYBlEfIDo747mIC-10">
          <mxGeometry relative="1" as="geometry" />
        </mxCell>
        <mxCell id="fawvQyYBlEfIDo747mIC-13" value="" style="edgeStyle=orthogonalEdgeStyle;rounded=0;orthogonalLoop=1;jettySize=auto;html=1;" edge="1" parent="WIyWlLk6GJQsqaUBKTNV-1" source="fawvQyYBlEfIDo747mIC-11" target="fawvQyYBlEfIDo747mIC-6">
          <mxGeometry relative="1" as="geometry" />
        </mxCell>
        <mxCell id="fawvQyYBlEfIDo747mIC-11" value="Material&lt;span style=&quot;font-size: 11px ; background-color: rgb(255 , 255 , 255)&quot;&gt;.percent =&amp;nbsp;float(percent_line.text())&amp;nbsp;&lt;/span&gt;" style="rounded=1;whiteSpace=wrap;html=1;" vertex="1" parent="WIyWlLk6GJQsqaUBKTNV-1">
          <mxGeometry x="90" y="340" width="220" height="40" as="geometry" />
        </mxCell>
        <mxCell id="fawvQyYBlEfIDo747mIC-14" value="Receipt.set_sum_to_qt()" style="whiteSpace=wrap;html=1;rounded=1;fillColor=#dae8fc;strokeColor=#6c8ebf;" vertex="1" parent="WIyWlLk6GJQsqaUBKTNV-1">
          <mxGeometry x="350" y="490" width="160" height="35" as="geometry" />
        </mxCell>
        <mxCell id="fawvQyYBlEfIDo747mIC-19" value="" style="edgeStyle=orthogonalEdgeStyle;rounded=0;orthogonalLoop=1;jettySize=auto;html=1;" edge="1" parent="WIyWlLk6GJQsqaUBKTNV-1" source="fawvQyYBlEfIDo747mIC-16" target="fawvQyYBlEfIDo747mIC-18">
          <mxGeometry relative="1" as="geometry" />
        </mxCell>
        <mxCell id="fawvQyYBlEfIDo747mIC-21" value="" style="edgeStyle=orthogonalEdgeStyle;rounded=0;orthogonalLoop=1;jettySize=auto;html=1;entryX=0.5;entryY=0;entryDx=0;entryDy=0;" edge="1" parent="WIyWlLk6GJQsqaUBKTNV-1" source="fawvQyYBlEfIDo747mIC-16" target="fawvQyYBlEfIDo747mIC-20">
          <mxGeometry relative="1" as="geometry">
            <mxPoint x="203.9999999999999" y="702.5" as="targetPoint" />
          </mxGeometry>
        </mxCell>
        <mxCell id="fawvQyYBlEfIDo747mIC-16" value="Receipt.update_all_parameters()" style="rounded=1;whiteSpace=wrap;html=1;" vertex="1" parent="WIyWlLk6GJQsqaUBKTNV-1">
          <mxGeometry x="105" y="585" width="190" height="30" as="geometry" />
        </mxCell>
        <mxCell id="fawvQyYBlEfIDo747mIC-79" value="" style="edgeStyle=orthogonalEdgeStyle;rounded=0;orthogonalLoop=1;jettySize=auto;html=1;" edge="1" parent="WIyWlLk6GJQsqaUBKTNV-1" source="fawvQyYBlEfIDo747mIC-18" target="fawvQyYBlEfIDo747mIC-78">
          <mxGeometry relative="1" as="geometry" />
        </mxCell>
        <mxCell id="fawvQyYBlEfIDo747mIC-18" value="Receipt.count_ew()" style="whiteSpace=wrap;html=1;rounded=1;" vertex="1" parent="WIyWlLk6GJQsqaUBKTNV-1">
          <mxGeometry x="374" y="582.5" width="120" height="35" as="geometry" />
        </mxCell>
        <mxCell id="fawvQyYBlEfIDo747mIC-25" value="" style="edgeStyle=orthogonalEdgeStyle;rounded=0;orthogonalLoop=1;jettySize=auto;html=1;" edge="1" parent="WIyWlLk6GJQsqaUBKTNV-1" source="fawvQyYBlEfIDo747mIC-20" target="fawvQyYBlEfIDo747mIC-24">
          <mxGeometry relative="1" as="geometry" />
        </mxCell>
        <mxCell id="fawvQyYBlEfIDo747mIC-20" value="ReceiptCounter.update_labels()" style="whiteSpace=wrap;html=1;rounded=1;" vertex="1" parent="WIyWlLk6GJQsqaUBKTNV-1">
          <mxGeometry x="97.5" y="690" width="205" height="50" as="geometry" />
        </mxCell>
        <mxCell id="fawvQyYBlEfIDo747mIC-22" value="Receipt.sum_percent = round(sum(Receipt.materials), 2)" style="whiteSpace=wrap;html=1;rounded=1;" vertex="1" parent="WIyWlLk6GJQsqaUBKTNV-1">
          <mxGeometry x="350" y="400" width="230" height="60" as="geometry" />
        </mxCell>
        <mxCell id="fawvQyYBlEfIDo747mIC-32" value="" style="edgeStyle=orthogonalEdgeStyle;rounded=0;orthogonalLoop=1;jettySize=auto;html=1;" edge="1" parent="WIyWlLk6GJQsqaUBKTNV-1" source="fawvQyYBlEfIDo747mIC-24" target="fawvQyYBlEfIDo747mIC-31">
          <mxGeometry relative="1" as="geometry" />
        </mxCell>
        <mxCell id="fawvQyYBlEfIDo747mIC-63" value="" style="edgeStyle=orthogonalEdgeStyle;rounded=0;orthogonalLoop=1;jettySize=auto;html=1;" edge="1" parent="WIyWlLk6GJQsqaUBKTNV-1" source="fawvQyYBlEfIDo747mIC-24" target="fawvQyYBlEfIDo747mIC-44">
          <mxGeometry relative="1" as="geometry" />
        </mxCell>
        <mxCell id="fawvQyYBlEfIDo747mIC-24" value="&lt;span&gt;Receipt(A).&lt;/span&gt;sum_percent&amp;nbsp;== 100&lt;br&gt;and&lt;br&gt;Receipt(B).sum_percent&amp;nbsp;== 100" style="rhombus;whiteSpace=wrap;html=1;" vertex="1" parent="WIyWlLk6GJQsqaUBKTNV-1">
          <mxGeometry x="62.5" y="770" width="275" height="170" as="geometry" />
        </mxCell>
        <mxCell id="fawvQyYBlEfIDo747mIC-67" value="" style="edgeStyle=orthogonalEdgeStyle;rounded=0;orthogonalLoop=1;jettySize=auto;html=1;" edge="1" parent="WIyWlLk6GJQsqaUBKTNV-1" source="fawvQyYBlEfIDo747mIC-30" target="fawvQyYBlEfIDo747mIC-66">
          <mxGeometry relative="1" as="geometry" />
        </mxCell>
        <mxCell id="fawvQyYBlEfIDo747mIC-30" value="ReceiptCounter.count_mass_ratio() -&amp;gt; mass_ratio" style="rounded=1;whiteSpace=wrap;html=1;" vertex="1" parent="WIyWlLk6GJQsqaUBKTNV-1">
          <mxGeometry x="690" y="692.5" width="290" height="45" as="geometry" />
        </mxCell>
        <mxCell id="fawvQyYBlEfIDo747mIC-31" value="&lt;span&gt;ReceiptCounter.&lt;/span&gt;drop_labels()" style="rounded=1;whiteSpace=wrap;html=1;fillColor=#dae8fc;strokeColor=#6c8ebf;" vertex="1" parent="WIyWlLk6GJQsqaUBKTNV-1">
          <mxGeometry x="115" y="990" width="170" height="60" as="geometry" />
        </mxCell>
        <mxCell id="fawvQyYBlEfIDo747mIC-73" value="" style="edgeStyle=orthogonalEdgeStyle;rounded=0;orthogonalLoop=1;jettySize=auto;html=1;" edge="1" parent="WIyWlLk6GJQsqaUBKTNV-1" source="fawvQyYBlEfIDo747mIC-33" target="fawvQyYBlEfIDo747mIC-72">
          <mxGeometry relative="1" as="geometry" />
        </mxCell>
        <mxCell id="fawvQyYBlEfIDo747mIC-33" value="ReceiptCounter.count_tg() -&amp;gt; primary_tg" style="rounded=1;whiteSpace=wrap;html=1;" vertex="1" parent="WIyWlLk6GJQsqaUBKTNV-1">
          <mxGeometry x="1080" y="832.5" width="250" height="45" as="geometry" />
        </mxCell>
        <mxCell id="fawvQyYBlEfIDo747mIC-37" value="YES" style="text;html=1;strokeColor=none;fillColor=none;align=center;verticalAlign=middle;whiteSpace=wrap;rounded=0;" vertex="1" parent="WIyWlLk6GJQsqaUBKTNV-1">
          <mxGeometry x="353.5" y="820" width="60" height="30" as="geometry" />
        </mxCell>
        <mxCell id="fawvQyYBlEfIDo747mIC-39" value="No" style="text;html=1;strokeColor=none;fillColor=none;align=center;verticalAlign=middle;whiteSpace=wrap;rounded=0;" vertex="1" parent="WIyWlLk6GJQsqaUBKTNV-1">
          <mxGeometry x="200" y="950" width="60" height="30" as="geometry" />
        </mxCell>
        <mxCell id="fawvQyYBlEfIDo747mIC-64" style="edgeStyle=orthogonalEdgeStyle;rounded=0;orthogonalLoop=1;jettySize=auto;html=1;" edge="1" parent="WIyWlLk6GJQsqaUBKTNV-1" source="fawvQyYBlEfIDo747mIC-44" target="fawvQyYBlEfIDo747mIC-30">
          <mxGeometry relative="1" as="geometry" />
        </mxCell>
        <mxCell id="fawvQyYBlEfIDo747mIC-65" style="edgeStyle=orthogonalEdgeStyle;rounded=0;orthogonalLoop=1;jettySize=auto;html=1;entryX=0;entryY=0.5;entryDx=0;entryDy=0;" edge="1" parent="WIyWlLk6GJQsqaUBKTNV-1" source="fawvQyYBlEfIDo747mIC-44" target="fawvQyYBlEfIDo747mIC-33">
          <mxGeometry relative="1" as="geometry" />
        </mxCell>
        <mxCell id="fawvQyYBlEfIDo747mIC-44" value="Receipt(A).ew * Receipt(B).ew &amp;lt; 0:" style="rhombus;whiteSpace=wrap;html=1;" vertex="1" parent="WIyWlLk6GJQsqaUBKTNV-1">
          <mxGeometry x="430" y="760" width="230" height="190" as="geometry" />
        </mxCell>
        <mxCell id="fawvQyYBlEfIDo747mIC-58" style="edgeStyle=orthogonalEdgeStyle;rounded=0;orthogonalLoop=1;jettySize=auto;html=1;entryX=1;entryY=0.5;entryDx=0;entryDy=0;exitX=0.5;exitY=1;exitDx=0;exitDy=0;" edge="1" parent="WIyWlLk6GJQsqaUBKTNV-1" source="fawvQyYBlEfIDo747mIC-44" target="fawvQyYBlEfIDo747mIC-31">
          <mxGeometry relative="1" as="geometry">
            <mxPoint x="650" y="1082.5" as="sourcePoint" />
          </mxGeometry>
        </mxCell>
        <mxCell id="fawvQyYBlEfIDo747mIC-71" value="" style="edgeStyle=orthogonalEdgeStyle;rounded=0;orthogonalLoop=1;jettySize=auto;html=1;" edge="1" parent="WIyWlLk6GJQsqaUBKTNV-1" source="fawvQyYBlEfIDo747mIC-66" target="fawvQyYBlEfIDo747mIC-70">
          <mxGeometry relative="1" as="geometry" />
        </mxCell>
        <mxCell id="fawvQyYBlEfIDo747mIC-66" value="&lt;span&gt;ReceiptCounter.mass_ratio =&amp;nbsp;&lt;/span&gt;mass_ratio" style="whiteSpace=wrap;html=1;rounded=1;" vertex="1" parent="WIyWlLk6GJQsqaUBKTNV-1">
          <mxGeometry x="690" y="610" width="290" height="45" as="geometry" />
        </mxCell>
        <mxCell id="fawvQyYBlEfIDo747mIC-70" value="MyMainWindow.set_mass_ratio(mass_ratio)" style="whiteSpace=wrap;html=1;rounded=1;fillColor=#dae8fc;strokeColor=#6c8ebf;" vertex="1" parent="WIyWlLk6GJQsqaUBKTNV-1">
          <mxGeometry x="690" y="525" width="290" height="47.5" as="geometry" />
        </mxCell>
        <mxCell id="fawvQyYBlEfIDo747mIC-76" value="" style="edgeStyle=orthogonalEdgeStyle;rounded=0;orthogonalLoop=1;jettySize=auto;html=1;" edge="1" parent="WIyWlLk6GJQsqaUBKTNV-1" source="fawvQyYBlEfIDo747mIC-72" target="fawvQyYBlEfIDo747mIC-75">
          <mxGeometry relative="1" as="geometry" />
        </mxCell>
        <mxCell id="fawvQyYBlEfIDo747mIC-72" value="ReceiptCounter.tg = primary_tg" style="whiteSpace=wrap;html=1;rounded=1;" vertex="1" parent="WIyWlLk6GJQsqaUBKTNV-1">
          <mxGeometry x="1080" y="740" width="250" height="40" as="geometry" />
        </mxCell>
        <mxCell id="fawvQyYBlEfIDo747mIC-75" value="MyMainWindow.set_tg(primary_tg)" style="whiteSpace=wrap;html=1;rounded=1;fillColor=#dae8fc;strokeColor=#6c8ebf;" vertex="1" parent="WIyWlLk6GJQsqaUBKTNV-1">
          <mxGeometry x="1077.5" y="660" width="255" height="40" as="geometry" />
        </mxCell>
        <mxCell id="fawvQyYBlEfIDo747mIC-77" value="Set value to qt window" style="rounded=1;whiteSpace=wrap;html=1;fillColor=#dae8fc;strokeColor=#6c8ebf;" vertex="1" parent="WIyWlLk6GJQsqaUBKTNV-1">
          <mxGeometry x="580" y="80" width="120" height="60" as="geometry" />
        </mxCell>
        <mxCell id="fawvQyYBlEfIDo747mIC-78" value="Receipt.set_ew_to_qt()" style="whiteSpace=wrap;html=1;rounded=1;fillColor=#dae8fc;strokeColor=#6c8ebf;" vertex="1" parent="WIyWlLk6GJQsqaUBKTNV-1">
          <mxGeometry x="354" y="650" width="160" height="35" as="geometry" />
        </mxCell>
      </root>
    </mxGraphModel>
  </diagram>
</mxfile>
